# Blender v2.80 (sub 75) OBJ File: ''
# www.blender.org
mtllib building_f1.mtl
o building_f1
v -2.000000 0.100000 2.000000
v -2.000000 0.000000 -2.000000
v -2.000000 0.000000 2.000000
v -2.000000 0.100000 -2.000000
v -1.600000 1.000000 0.400000
v -1.600000 0.100000 -2.000000
v -1.600000 0.100000 0.400000
v -1.600000 1.000000 -2.000000
v -0.900000 0.200000 1.600000
v -0.900000 0.100000 0.400000
v -0.900000 0.100000 1.600000
v -0.900000 0.200000 0.400000
v -0.800000 0.300000 1.500000
v -0.800000 0.200000 0.400000
v -0.800000 0.200000 1.500000
v -0.800000 0.300000 0.400000
v 0.400000 1.000000 0.400000
v 0.400000 0.300000 0.300000
v 0.400000 0.300000 0.400000
v 0.400000 1.000000 0.300000
v -0.400000 0.300000 0.400000
v -0.400000 0.300000 0.300000
v -0.400000 1.000000 0.400000
v -0.400000 1.000000 0.300000
v 0.800000 0.200000 1.500000
v 0.800000 0.200000 0.400000
v 0.800000 0.300000 1.500000
v 0.800000 0.300000 0.400000
v 0.900000 0.100000 1.600000
v 0.900000 0.100000 0.400000
v 0.900000 0.200000 1.600000
v 0.900000 0.200000 0.400000
v 1.600000 0.100000 0.400000
v 1.600000 0.100000 -2.000000
v 1.600000 1.000000 0.400000
v 1.600000 1.000000 -2.000000
v 2.000000 0.000000 2.000000
v 2.000000 0.000000 -2.000000
v 2.000000 0.100000 2.000000
v 2.000000 0.100000 -2.000000
v 2.000000 0.000000 2.000000
v -2.000000 0.100000 2.000000
v -2.000000 0.000000 2.000000
v 2.000000 0.100000 2.000000
v 0.900000 0.100000 1.600000
v -0.900000 0.200000 1.600000
v -0.900000 0.100000 1.600000
v 0.900000 0.200000 1.600000
v 0.800000 0.200000 1.500000
v -0.800000 0.300000 1.500000
v -0.800000 0.200000 1.500000
v 0.800000 0.300000 1.500000
v -0.900000 0.100000 0.400000
v -1.600000 1.000000 0.400000
v -1.600000 0.100000 0.400000
v -0.900000 0.200000 0.400000
v -0.800000 0.200000 0.400000
v -0.800000 0.300000 0.400000
v -0.400000 0.300000 0.400000
v -0.400000 1.000000 0.400000
v 0.800000 0.300000 0.400000
v 0.400000 1.000000 0.400000
v 0.400000 0.300000 0.400000
v 0.900000 0.200000 0.400000
v 0.800000 0.200000 0.400000
v 1.600000 0.100000 0.400000
v 0.900000 0.100000 0.400000
v 1.600000 1.000000 0.400000
v 0.400000 0.300000 0.300000
v -0.400000 1.000000 0.300000
v -0.400000 0.300000 0.300000
v 0.400000 1.000000 0.300000
v -2.000000 0.000000 -2.000000
v -2.000000 0.100000 -2.000000
v -1.600000 0.000000 -2.000000
v -1.600000 0.100000 -2.000000
v 1.600000 0.000000 -2.000000
v -1.600000 1.000000 -2.000000
v 1.600000 0.100000 -2.000000
v 1.600000 1.000000 -2.000000
v 2.000000 0.000000 -2.000000
v 2.000000 0.100000 -2.000000
v -0.900000 0.000000 1.600000
v 2.000000 0.000000 2.000000
v -2.000000 0.000000 2.000000
v 0.900000 0.000000 1.600000
v -1.600000 0.000000 0.400000
v -0.900000 0.000000 0.400000
v 0.900000 0.000000 0.400000
v 1.600000 0.000000 0.400000
v -2.000000 0.000000 -2.000000
v -1.600000 0.000000 -2.000000
v 1.600000 0.000000 -2.000000
v 2.000000 0.000000 -2.000000
v -2.000000 0.100000 2.000000
v 2.000000 0.100000 2.000000
v -0.900000 0.100000 1.600000
v 0.900000 0.100000 1.600000
v -1.600000 0.100000 0.400000
v -0.900000 0.100000 0.400000
v 0.900000 0.100000 0.400000
v 1.600000 0.100000 0.400000
v -2.000000 0.100000 -2.000000
v -1.600000 0.100000 -2.000000
v 1.600000 0.100000 -2.000000
v 2.000000 0.100000 -2.000000
v -0.900000 0.200000 1.600000
v 0.900000 0.200000 1.600000
v -0.800000 0.200000 1.500000
v 0.800000 0.200000 1.500000
v -0.900000 0.200000 0.400000
v -0.800000 0.200000 0.400000
v 0.800000 0.200000 0.400000
v 0.900000 0.200000 0.400000
v -0.800000 0.300000 1.500000
v 0.800000 0.300000 1.500000
v -0.800000 0.300000 0.400000
v -0.400000 0.300000 0.400000
v 0.400000 0.300000 0.400000
v 0.800000 0.300000 0.400000
v -0.400000 0.300000 0.300000
v 0.400000 0.300000 0.300000
v -1.600000 1.000000 0.400000
v -0.400000 1.000000 0.400000
v -0.400000 1.000000 0.300000
v 0.400000 1.000000 0.400000
v 1.600000 1.000000 0.400000
v 0.400000 1.000000 0.300000
v -0.400000 1.000000 0.200000
v 0.400000 1.000000 0.200000
v -1.600000 1.000000 -2.000000
v 1.600000 1.000000 -2.000000
vt 0.298828 0.500000
vt 0.298828 0.500000
vt 0.298828 0.500000
vt 0.298828 0.500000
vt 0.306641 0.500000
vt 0.306641 0.500000
vt 0.306641 0.500000
vt 0.306641 0.500000
vt 0.302734 0.500000
vt 0.302734 0.500000
vt 0.302734 0.500000
vt 0.302734 0.500000
vt 0.302734 0.500000
vt 0.302734 0.500000
vt 0.302734 0.500000
vt 0.302734 0.500000
vt 0.306641 0.500000
vt 0.306641 0.500000
vt 0.306641 0.500000
vt 0.306641 0.500000
vt 0.306641 0.500000
vt 0.306641 0.500000
vt 0.306641 0.500000
vt 0.306641 0.500000
vt 0.302734 0.500000
vt 0.302734 0.500000
vt 0.302734 0.500000
vt 0.302734 0.500000
vt 0.302734 0.500000
vt 0.302734 0.500000
vt 0.302734 0.500000
vt 0.302734 0.500000
vt 0.306641 0.500000
vt 0.306641 0.500000
vt 0.306641 0.500000
vt 0.306641 0.500000
vt 0.298828 0.500000
vt 0.298828 0.500000
vt 0.298828 0.500000
vt 0.298828 0.500000
vt 0.298828 0.500000
vt 0.298828 0.500000
vt 0.298828 0.500000
vt 0.298828 0.500000
vt 0.302734 0.500000
vt 0.302734 0.500000
vt 0.302734 0.500000
vt 0.302734 0.500000
vt 0.302734 0.500000
vt 0.302734 0.500000
vt 0.302734 0.500000
vt 0.302734 0.500000
vt 0.306641 0.500000
vt 0.306641 0.500000
vt 0.306641 0.500000
vt 0.306641 0.500000
vt 0.306641 0.500000
vt 0.306641 0.500000
vt 0.306641 0.500000
vt 0.306641 0.500000
vt 0.306641 0.500000
vt 0.306641 0.500000
vt 0.306641 0.500000
vt 0.306641 0.500000
vt 0.306641 0.500000
vt 0.306641 0.500000
vt 0.306641 0.500000
vt 0.306641 0.500000
vt 0.310547 0.500000
vt 0.310547 0.500000
vt 0.310547 0.500000
vt 0.310547 0.500000
vt 0.298828 0.500000
vt 0.298828 0.500000
vt 0.298828 0.500000
vt 0.298828 0.500000
vt 0.306641 0.500000
vt 0.306641 0.500000
vt 0.306641 0.500000
vt 0.306641 0.500000
vt 0.306641 0.500000
vt 0.306641 0.500000
vt 0.298828 0.500000
vt 0.298828 0.500000
vt 0.298828 0.500000
vt 0.298828 0.500000
vt 0.298828 0.500000
vt 0.298828 0.500000
vt 0.298828 0.500000
vt 0.298828 0.500000
vt 0.298828 0.500000
vt 0.306641 0.500000
vt 0.306641 0.500000
vt 0.306641 0.500000
vt 0.298828 0.500000
vt 0.298828 0.500000
vt 0.306641 0.500000
vt 0.298828 0.500000
vt 0.298828 0.500000
vt 0.306641 0.500000
vt 0.306641 0.500000
vt 0.298828 0.500000
vt 0.306641 0.500000
vt 0.298828 0.500000
vt 0.306641 0.500000
vt 0.298828 0.500000
vt 0.298828 0.500000
vt 0.298828 0.500000
vt 0.298828 0.500000
vt 0.298828 0.500000
vt 0.298828 0.500000
vt 0.298828 0.500000
vt 0.298828 0.500000
vt 0.298828 0.500000
vt 0.298828 0.500000
vt 0.298828 0.500000
vt 0.298828 0.500000
vt 0.298828 0.500000
vt 0.302734 0.500000
vt 0.302734 0.500000
vt 0.302734 0.500000
vt 0.302734 0.500000
vt 0.302734 0.500000
vt 0.302734 0.500000
vt 0.302734 0.500000
vt 0.302734 0.500000
vt 0.302734 0.500000
vt 0.302734 0.500000
vt 0.302734 0.500000
vt 0.302734 0.500000
vt 0.302734 0.500000
vt 0.302734 0.500000
vt 0.302734 0.500000
vt 0.302734 0.500000
vt 0.306641 0.500000
vt 0.306641 0.500000
vt 0.306641 0.500000
vt 0.306641 0.500000
vt 0.306641 0.500000
vt 0.306641 0.500000
vt 0.306641 0.500000
vt 0.310547 0.500000
vt 0.310547 0.500000
vt 0.310547 0.500000
vt 0.306641 0.500000
vt 0.310547 0.500000
vt 0.306641 0.500000
vt 0.306641 0.500000
vn -1.0000 0.0000 0.0000
vn 1.0000 0.0000 0.0000
vn 0.0000 0.0000 1.0000
vn 0.0000 0.0000 -1.0000
vn -0.0000 -1.0000 -0.0000
vn -0.0000 1.0000 0.0000
usemtl palette
s 1
f 1/1/1 2/2/1 3/3/1
f 4/4/1 2/2/1 1/1/1
f 5/5/1 6/6/1 7/7/1
f 8/8/1 6/6/1 5/5/1
f 9/9/1 10/10/1 11/11/1
f 12/12/1 10/10/1 9/9/1
f 13/13/1 14/14/1 15/15/1
f 16/16/1 14/14/1 13/13/1
f 17/17/1 18/18/1 19/19/1
f 20/20/1 18/18/1 17/17/1
f 21/21/2 22/22/2 23/23/2
f 23/23/2 22/22/2 24/24/2
f 25/25/2 26/26/2 27/27/2
f 27/27/2 26/26/2 28/28/2
f 29/29/2 30/30/2 31/31/2
f 31/31/2 30/30/2 32/32/2
f 33/33/2 34/34/2 35/35/2
f 35/35/2 34/34/2 36/36/2
f 37/37/2 38/38/2 39/39/2
f 39/39/2 38/38/2 40/40/2
f 41/41/3 42/42/3 43/43/3
f 44/44/3 42/42/3 41/41/3
f 45/45/3 46/46/3 47/47/3
f 48/48/3 46/46/3 45/45/3
f 49/49/3 50/50/3 51/51/3
f 52/52/3 50/50/3 49/49/3
f 53/53/3 54/54/3 55/55/3
f 56/56/3 54/54/3 53/53/3
f 57/57/3 54/54/3 56/56/3
f 58/58/3 54/54/3 57/57/3
f 59/59/3 54/54/3 58/58/3
f 60/60/3 54/54/3 59/59/3
f 61/61/3 62/62/3 63/63/3
f 64/64/3 61/61/3 65/65/3
f 66/66/3 64/64/3 67/67/3
f 68/68/3 62/62/3 61/61/3
f 68/68/3 64/64/3 66/66/3
f 68/68/3 61/61/3 64/64/3
f 69/69/3 70/70/3 71/71/3
f 72/72/3 70/70/3 69/69/3
f 73/73/4 74/74/4 75/75/4
f 75/75/4 74/74/4 76/76/4
f 75/77/4 76/78/4 77/79/4
f 76/78/4 78/80/4 77/79/4
f 77/79/4 78/80/4 79/81/4
f 79/81/4 78/80/4 80/82/4
f 77/83/4 79/84/4 81/85/4
f 81/85/4 79/84/4 82/86/4
f 83/87/5 84/88/5 85/89/5
f 86/90/5 84/88/5 83/87/5
f 87/91/5 83/87/5 85/89/5
f 88/92/5 86/93/5 83/94/5
f 88/95/5 83/87/5 87/91/5
f 89/96/5 84/88/5 86/90/5
f 89/97/5 86/93/5 88/92/5
f 90/98/5 84/88/5 89/96/5
f 91/99/5 87/91/5 85/89/5
f 92/100/5 88/92/5 87/101/5
f 92/102/5 87/91/5 91/99/5
f 92/100/5 89/97/5 88/92/5
f 92/100/5 90/103/5 89/97/5
f 93/104/5 84/88/5 90/98/5
f 93/105/5 90/103/5 92/100/5
f 94/106/5 84/88/5 93/104/5
f 95/107/6 96/108/6 97/109/6
f 97/109/6 96/108/6 98/110/6
f 95/107/6 97/109/6 99/111/6
f 99/111/6 97/109/6 100/112/6
f 98/110/6 96/108/6 101/113/6
f 101/113/6 96/108/6 102/114/6
f 95/107/6 99/111/6 103/115/6
f 103/115/6 99/111/6 104/116/6
f 102/114/6 96/108/6 105/117/6
f 105/117/6 96/108/6 106/118/6
f 107/119/6 108/120/6 109/121/6
f 109/121/6 108/120/6 110/122/6
f 107/119/6 109/121/6 111/123/6
f 111/123/6 109/121/6 112/124/6
f 110/122/6 108/120/6 113/125/6
f 113/125/6 108/120/6 114/126/6
f 115/127/6 116/128/6 117/129/6
f 117/129/6 116/128/6 118/130/6
f 118/130/6 116/128/6 119/131/6
f 119/131/6 116/128/6 120/132/6
f 118/130/6 119/131/6 121/133/6
f 121/133/6 119/131/6 122/134/6
f 123/135/6 124/136/6 125/137/6
f 126/138/6 127/139/6 128/140/6
f 123/135/6 125/137/6 129/141/6
f 125/142/6 128/143/6 129/144/6
f 128/140/6 127/139/6 130/145/6
f 129/144/6 128/143/6 130/146/6
f 123/135/6 129/141/6 131/147/6
f 129/141/6 130/145/6 131/147/6
f 130/145/6 127/139/6 132/148/6
f 131/147/6 130/145/6 132/148/6
