# Blender v2.80 (sub 75) OBJ File: ''
# www.blender.org
mtllib building_f4.mtl
o building_f4
v -0.400000 0.300000 -0.600000
v -0.400000 0.100000 -2.000000
v -0.400000 0.100000 -0.600000
v -0.400000 0.300000 -2.000000
v 0.000000 0.100000 -0.600000
v 0.000000 0.000000 -2.400000
v 0.000000 0.000000 0.000000
v 0.000000 0.100000 -2.000000
v 0.000000 0.300000 -0.600000
v 0.000000 0.300000 -0.700000
v 0.000000 0.200000 -0.800000
v 0.000000 0.200000 -0.700000
v 0.000000 0.300000 -1.900000
v 0.000000 0.200000 -1.900000
v 0.000000 0.200000 -1.800000
v 0.000000 0.300000 -2.000000
v 0.000000 0.700000 -0.800000
v 0.000000 0.700000 -1.800000
v 0.000000 1.000000 0.000000
v 0.000000 1.000000 -2.400000
v 0.100000 0.700000 -0.800000
v 0.100000 0.200000 -1.800000
v 0.100000 0.200000 -0.800000
v 0.100000 0.700000 -1.800000
v 0.200000 1.000000 -1.700000
v 0.200000 0.900000 -2.200000
v 0.200000 0.900000 -1.700000
v 0.200000 1.000000 -2.200000
v 0.400000 1.000000 -1.400000
v 0.400000 0.900000 -1.600000
v 0.400000 0.900000 -1.400000
v 0.400000 1.000000 -1.600000
v 0.900000 0.900000 0.000000
v 0.900000 0.100000 -0.100000
v 0.900000 0.100000 0.000000
v 0.900000 0.900000 -0.100000
v 1.900000 0.900000 0.000000
v 1.900000 0.100000 -0.100000
v 1.900000 0.100000 0.000000
v 1.900000 0.900000 -0.100000
v 2.000000 1.000000 -1.900000
v 2.000000 0.900000 -2.200000
v 2.000000 0.900000 -1.900000
v 2.000000 1.000000 -2.200000
v 2.900000 0.900000 0.000000
v 2.900000 0.100000 -0.100000
v 2.900000 0.100000 0.000000
v 2.900000 0.900000 -0.100000
v 3.100000 1.000000 -0.100000
v 3.100000 0.900000 -2.300000
v 3.100000 0.900000 -0.100000
v 3.100000 1.000000 -2.300000
v -0.300000 0.200000 -0.700000
v -0.300000 0.200000 -1.900000
v -0.300000 0.300000 -0.700000
v -0.300000 0.300000 -1.900000
v 0.100000 0.900000 -0.100000
v 0.100000 0.900000 -2.300000
v 0.100000 1.000000 -0.100000
v 0.100000 1.000000 -2.300000
v 0.300000 0.100000 0.000000
v 0.300000 0.100000 -0.100000
v 0.300000 0.900000 0.000000
v 0.300000 0.900000 -0.100000
v 0.600000 0.900000 -1.400000
v 0.600000 0.900000 -1.600000
v 0.600000 1.000000 -1.400000
v 0.600000 1.000000 -1.600000
v 0.600000 0.900000 -1.700000
v 0.600000 0.900000 -2.200000
v 0.600000 1.000000 -1.700000
v 0.600000 1.000000 -2.200000
v 1.300000 0.100000 0.000000
v 1.300000 0.100000 -0.100000
v 1.300000 0.900000 0.000000
v 1.300000 0.900000 -0.100000
v 2.300000 0.100000 0.000000
v 2.300000 0.100000 -0.100000
v 2.300000 0.900000 0.000000
v 2.300000 0.900000 -0.100000
v 3.000000 0.900000 -1.900000
v 3.000000 0.900000 -2.200000
v 3.000000 1.000000 -1.900000
v 3.000000 1.000000 -2.200000
v 3.100000 0.200000 -0.600000
v 3.100000 0.200000 -1.200000
v 3.100000 0.800000 -0.600000
v 3.100000 0.800000 -1.200000
v 3.200000 0.000000 0.000000
v 3.200000 0.000000 -2.400000
v 3.200000 0.200000 -0.600000
v 3.200000 0.200000 -1.200000
v 3.200000 0.800000 -0.600000
v 3.200000 0.800000 -1.200000
v 3.200000 1.000000 0.000000
v 3.200000 1.000000 -2.400000
v 0.300000 0.100000 0.000000
v 0.000000 1.000000 0.000000
v 0.000000 0.000000 0.000000
v 0.300000 0.900000 0.000000
v 0.900000 0.100000 0.000000
v 0.900000 0.900000 0.000000
v 1.300000 0.100000 0.000000
v 1.300000 0.900000 0.000000
v 1.900000 0.100000 0.000000
v 1.900000 0.900000 0.000000
v 2.300000 0.100000 0.000000
v 2.300000 0.900000 0.000000
v 2.900000 0.100000 0.000000
v 2.900000 0.900000 0.000000
v 3.200000 0.000000 0.000000
v 3.200000 1.000000 0.000000
v 0.900000 0.100000 -0.100000
v 0.300000 0.900000 -0.100000
v 0.300000 0.100000 -0.100000
v 0.900000 0.900000 -0.100000
v 1.900000 0.100000 -0.100000
v 1.300000 0.900000 -0.100000
v 1.300000 0.100000 -0.100000
v 1.900000 0.900000 -0.100000
v 2.900000 0.100000 -0.100000
v 2.300000 0.900000 -0.100000
v 2.300000 0.100000 -0.100000
v 2.900000 0.900000 -0.100000
v 0.000000 0.100000 -0.600000
v -0.400000 0.300000 -0.600000
v -0.400000 0.100000 -0.600000
v 0.000000 0.300000 -0.600000
v 3.200000 0.200000 -1.200000
v 3.100000 0.800000 -1.200000
v 3.100000 0.200000 -1.200000
v 3.200000 0.800000 -1.200000
v 0.600000 0.900000 -1.400000
v 0.400000 1.000000 -1.400000
v 0.400000 0.900000 -1.400000
v 0.600000 1.000000 -1.400000
v 0.600000 0.900000 -1.700000
v 0.200000 1.000000 -1.700000
v 0.200000 0.900000 -1.700000
v 0.600000 1.000000 -1.700000
v 0.100000 0.200000 -1.800000
v 0.000000 0.700000 -1.800000
v 0.000000 0.200000 -1.800000
v 0.100000 0.700000 -1.800000
v 0.000000 0.200000 -1.900000
v -0.300000 0.300000 -1.900000
v -0.300000 0.200000 -1.900000
v 0.000000 0.300000 -1.900000
v 3.000000 0.900000 -1.900000
v 2.000000 1.000000 -1.900000
v 2.000000 0.900000 -1.900000
v 3.000000 1.000000 -1.900000
v 3.100000 0.900000 -2.300000
v 0.100000 1.000000 -2.300000
v 0.100000 0.900000 -2.300000
v 3.100000 1.000000 -2.300000
v 0.100000 0.900000 -0.100000
v 0.100000 1.000000 -0.100000
v 0.300000 0.900000 -0.100000
v 0.900000 0.900000 -0.100000
v 1.300000 0.900000 -0.100000
v 1.900000 0.900000 -0.100000
v 2.300000 0.900000 -0.100000
v 2.900000 0.900000 -0.100000
v 3.100000 0.900000 -0.100000
v 3.100000 1.000000 -0.100000
v 3.100000 0.200000 -0.600000
v 3.100000 0.800000 -0.600000
v 3.200000 0.200000 -0.600000
v 3.200000 0.800000 -0.600000
v -0.300000 0.200000 -0.700000
v -0.300000 0.300000 -0.700000
v 0.000000 0.200000 -0.700000
v 0.000000 0.300000 -0.700000
v 0.000000 0.200000 -0.800000
v 0.000000 0.700000 -0.800000
v 0.100000 0.200000 -0.800000
v 0.100000 0.700000 -0.800000
v 0.400000 0.900000 -1.600000
v 0.400000 1.000000 -1.600000
v 0.600000 0.900000 -1.600000
v 0.600000 1.000000 -1.600000
v -0.400000 0.100000 -2.000000
v -0.400000 0.300000 -2.000000
v 0.000000 0.100000 -2.000000
v 0.000000 0.300000 -2.000000
v 0.200000 0.900000 -2.200000
v 0.200000 1.000000 -2.200000
v 0.600000 0.900000 -2.200000
v 0.600000 1.000000 -2.200000
v 2.000000 0.900000 -2.200000
v 2.000000 1.000000 -2.200000
v 3.000000 0.900000 -2.200000
v 3.000000 1.000000 -2.200000
v 0.000000 0.000000 -2.400000
v 0.000000 1.000000 -2.400000
v 3.200000 0.000000 -2.400000
v 3.200000 1.000000 -2.400000
v 0.000000 0.000000 -2.400000
v 3.200000 0.000000 0.000000
v 0.000000 0.000000 0.000000
v 3.200000 0.000000 -2.400000
v -0.400000 0.100000 -2.000000
v 0.000000 0.100000 -0.600000
v -0.400000 0.100000 -0.600000
v 0.000000 0.100000 -2.000000
v 0.000000 0.700000 -1.800000
v 0.100000 0.700000 -0.800000
v 0.000000 0.700000 -0.800000
v 0.100000 0.700000 -1.800000
v 3.100000 0.800000 -1.200000
v 3.200000 0.800000 -0.600000
v 3.100000 0.800000 -0.600000
v 3.200000 0.800000 -1.200000
v 0.300000 0.900000 -0.100000
v 0.900000 0.900000 0.000000
v 0.300000 0.900000 0.000000
v 0.900000 0.900000 -0.100000
v 1.300000 0.900000 -0.100000
v 1.900000 0.900000 0.000000
v 1.300000 0.900000 0.000000
v 1.900000 0.900000 -0.100000
v 2.300000 0.900000 -0.100000
v 2.900000 0.900000 0.000000
v 2.300000 0.900000 0.000000
v 2.900000 0.900000 -0.100000
v 0.300000 0.100000 0.000000
v 0.900000 0.100000 0.000000
v 0.300000 0.100000 -0.100000
v 0.900000 0.100000 -0.100000
v 1.300000 0.100000 0.000000
v 1.900000 0.100000 0.000000
v 1.300000 0.100000 -0.100000
v 1.900000 0.100000 -0.100000
v 2.300000 0.100000 0.000000
v 2.900000 0.100000 0.000000
v 2.300000 0.100000 -0.100000
v 2.900000 0.100000 -0.100000
v -0.300000 0.200000 -0.700000
v 0.000000 0.200000 -0.700000
v 0.000000 0.200000 -0.800000
v 3.100000 0.200000 -0.600000
v 3.200000 0.200000 -0.600000
v 3.100000 0.200000 -1.200000
v 3.200000 0.200000 -1.200000
v 0.100000 0.200000 -0.800000
v 0.000000 0.200000 -1.800000
v 0.100000 0.200000 -1.800000
v -0.300000 0.200000 -1.900000
v 0.000000 0.200000 -1.900000
v -0.400000 0.300000 -0.600000
v 0.000000 0.300000 -0.600000
v -0.300000 0.300000 -0.700000
v 0.000000 0.300000 -0.700000
v -0.300000 0.300000 -1.900000
v -0.400000 0.300000 -2.000000
v 0.000000 0.300000 -1.900000
v 0.000000 0.300000 -2.000000
v 0.100000 0.900000 -0.100000
v 0.300000 0.900000 -0.100000
v 0.300000 0.900000 -0.200000
v 0.900000 0.900000 -0.100000
v 1.300000 0.900000 -0.100000
v 0.900000 0.900000 -0.200000
v 1.900000 0.900000 -0.100000
v 1.300000 0.900000 -0.200000
v 2.300000 0.900000 -0.100000
v 1.900000 0.900000 -0.200000
v 2.900000 0.900000 -0.100000
v 2.300000 0.900000 -0.200000
v 3.100000 0.900000 -0.100000
v 2.900000 0.900000 -0.200000
v 0.400000 0.900000 -1.400000
v 0.600000 0.900000 -1.400000
v 0.400000 0.900000 -1.600000
v 0.600000 0.900000 -1.600000
v 0.200000 0.900000 -1.700000
v 0.600000 0.900000 -1.700000
v 2.000000 0.900000 -1.900000
v 3.000000 0.900000 -1.900000
v 0.200000 0.900000 -2.200000
v 0.600000 0.900000 -2.200000
v 2.000000 0.900000 -2.200000
v 3.000000 0.900000 -2.200000
v 0.100000 0.900000 -2.300000
v 3.100000 0.900000 -2.300000
v 0.000000 1.000000 0.000000
v 3.200000 1.000000 0.000000
v 0.100000 1.000000 -0.100000
v 3.100000 1.000000 -0.100000
v 0.400000 1.000000 -1.400000
v 0.600000 1.000000 -1.400000
v 0.400000 1.000000 -1.600000
v 0.600000 1.000000 -1.600000
v 0.200000 1.000000 -1.700000
v 0.600000 1.000000 -1.700000
v 0.200000 1.000000 -2.200000
v 0.600000 1.000000 -2.200000
v 2.000000 1.000000 -1.900000
v 3.000000 1.000000 -1.900000
v 2.000000 1.000000 -2.200000
v 3.000000 1.000000 -2.200000
v 0.100000 1.000000 -2.300000
v 3.100000 1.000000 -2.300000
v 0.000000 1.000000 -2.400000
v 3.200000 1.000000 -2.400000
vt 0.306641 0.500000
vt 0.306641 0.500000
vt 0.306641 0.500000
vt 0.306641 0.500000
vt 0.306641 0.500000
vt 0.306641 0.500000
vt 0.306641 0.500000
vt 0.306641 0.500000
vt 0.306641 0.500000
vt 0.306641 0.500000
vt 0.306641 0.500000
vt 0.306641 0.500000
vt 0.306641 0.500000
vt 0.306641 0.500000
vt 0.306641 0.500000
vt 0.306641 0.500000
vt 0.306641 0.500000
vt 0.306641 0.500000
vt 0.306641 0.500000
vt 0.306641 0.500000
vt 0.310547 0.500000
vt 0.310547 0.500000
vt 0.310547 0.500000
vt 0.310547 0.500000
vt 0.302734 0.500000
vt 0.302734 0.500000
vt 0.302734 0.500000
vt 0.302734 0.500000
vt 0.302734 0.500000
vt 0.302734 0.500000
vt 0.302734 0.500000
vt 0.302734 0.500000
vt 0.306641 0.500000
vt 0.306641 0.500000
vt 0.306641 0.500000
vt 0.306641 0.500000
vt 0.306641 0.500000
vt 0.306641 0.500000
vt 0.306641 0.500000
vt 0.306641 0.500000
vt 0.302734 0.500000
vt 0.302734 0.500000
vt 0.302734 0.500000
vt 0.302734 0.500000
vt 0.306641 0.500000
vt 0.306641 0.500000
vt 0.306641 0.500000
vt 0.306641 0.500000
vt 0.306641 0.500000
vt 0.306641 0.500000
vt 0.306641 0.500000
vt 0.306641 0.500000
vt 0.306641 0.500000
vt 0.306641 0.500000
vt 0.306641 0.500000
vt 0.306641 0.500000
vt 0.306641 0.500000
vt 0.306641 0.500000
vt 0.306641 0.500000
vt 0.306641 0.500000
vt 0.306641 0.500000
vt 0.306641 0.500000
vt 0.306641 0.500000
vt 0.306641 0.500000
vt 0.302734 0.500000
vt 0.302734 0.500000
vt 0.302734 0.500000
vt 0.302734 0.500000
vt 0.302734 0.500000
vt 0.302734 0.500000
vt 0.302734 0.500000
vt 0.302734 0.500000
vt 0.306641 0.500000
vt 0.306641 0.500000
vt 0.306641 0.500000
vt 0.306641 0.500000
vt 0.306641 0.500000
vt 0.306641 0.500000
vt 0.306641 0.500000
vt 0.306641 0.500000
vt 0.302734 0.500000
vt 0.302734 0.500000
vt 0.302734 0.500000
vt 0.302734 0.500000
vt 0.306641 0.500000
vt 0.306641 0.500000
vt 0.306641 0.500000
vt 0.306641 0.500000
vt 0.306641 0.500000
vt 0.306641 0.500000
vt 0.306641 0.500000
vt 0.306641 0.500000
vt 0.306641 0.500000
vt 0.306641 0.500000
vt 0.306641 0.500000
vt 0.306641 0.500000
vt 0.306641 0.500000
vt 0.306641 0.500000
vt 0.306641 0.500000
vt 0.306641 0.500000
vt 0.306641 0.500000
vt 0.306641 0.500000
vt 0.306641 0.500000
vt 0.306641 0.500000
vt 0.306641 0.500000
vt 0.306641 0.500000
vt 0.306641 0.500000
vt 0.306641 0.500000
vt 0.306641 0.500000
vt 0.306641 0.500000
vt 0.306641 0.500000
vt 0.306641 0.500000
vt 0.310547 0.500000
vt 0.310547 0.500000
vt 0.310547 0.500000
vt 0.310547 0.500000
vt 0.310547 0.500000
vt 0.310547 0.500000
vt 0.310547 0.500000
vt 0.310547 0.500000
vt 0.310547 0.500000
vt 0.310547 0.500000
vt 0.310547 0.500000
vt 0.310547 0.500000
vt 0.306641 0.500000
vt 0.306641 0.500000
vt 0.306641 0.500000
vt 0.306641 0.500000
vt 0.306641 0.500000
vt 0.306641 0.500000
vt 0.306641 0.500000
vt 0.306641 0.500000
vt 0.302734 0.500000
vt 0.302734 0.500000
vt 0.302734 0.500000
vt 0.302734 0.500000
vt 0.302734 0.500000
vt 0.302734 0.500000
vt 0.302734 0.500000
vt 0.302734 0.500000
vt 0.306641 0.500000
vt 0.306641 0.500000
vt 0.306641 0.500000
vt 0.306641 0.500000
vt 0.306641 0.500000
vt 0.306641 0.500000
vt 0.306641 0.500000
vt 0.306641 0.500000
vt 0.302734 0.500000
vt 0.302734 0.500000
vt 0.302734 0.500000
vt 0.302734 0.500000
vt 0.306641 0.500000
vt 0.306641 0.500000
vt 0.306641 0.500000
vt 0.306641 0.500000
vt 0.306641 0.500000
vt 0.306641 0.500000
vt 0.306641 0.500000
vt 0.306641 0.500000
vt 0.306641 0.500000
vt 0.306641 0.500000
vt 0.306641 0.500000
vt 0.306641 0.500000
vt 0.306641 0.500000
vt 0.306641 0.500000
vt 0.306641 0.500000
vt 0.306641 0.500000
vt 0.306641 0.500000
vt 0.306641 0.500000
vt 0.306641 0.500000
vt 0.306641 0.500000
vt 0.306641 0.500000
vt 0.306641 0.500000
vt 0.306641 0.500000
vt 0.306641 0.500000
vt 0.306641 0.500000
vt 0.306641 0.500000
vt 0.302734 0.500000
vt 0.302734 0.500000
vt 0.302734 0.500000
vt 0.302734 0.500000
vt 0.306641 0.500000
vt 0.306641 0.500000
vt 0.306641 0.500000
vt 0.306641 0.500000
vt 0.302734 0.500000
vt 0.302734 0.500000
vt 0.302734 0.500000
vt 0.302734 0.500000
vt 0.302734 0.500000
vt 0.302734 0.500000
vt 0.302734 0.500000
vt 0.302734 0.500000
vt 0.306641 0.500000
vt 0.306641 0.500000
vt 0.306641 0.500000
vt 0.306641 0.500000
vt 0.306641 0.500000
vt 0.306641 0.500000
vt 0.306641 0.500000
vt 0.306641 0.500000
vt 0.306641 0.500000
vt 0.306641 0.500000
vt 0.306641 0.500000
vt 0.306641 0.500000
vt 0.306641 0.500000
vt 0.306641 0.500000
vt 0.306641 0.500000
vt 0.306641 0.500000
vt 0.306641 0.500000
vt 0.306641 0.500000
vt 0.306641 0.500000
vt 0.306641 0.500000
vt 0.306641 0.500000
vt 0.306641 0.500000
vt 0.306641 0.500000
vt 0.306641 0.500000
vt 0.306641 0.500000
vt 0.306641 0.500000
vt 0.306641 0.500000
vt 0.306641 0.500000
vt 0.306641 0.500000
vt 0.306641 0.500000
vt 0.306641 0.500000
vt 0.306641 0.500000
vt 0.306641 0.500000
vt 0.306641 0.500000
vt 0.306641 0.500000
vt 0.306641 0.500000
vt 0.306641 0.500000
vt 0.306641 0.500000
vt 0.306641 0.500000
vt 0.306641 0.500000
vt 0.306641 0.500000
vt 0.306641 0.500000
vt 0.306641 0.500000
vt 0.306641 0.500000
vt 0.306641 0.500000
vt 0.306641 0.500000
vt 0.306641 0.500000
vt 0.306641 0.500000
vt 0.306641 0.500000
vt 0.306641 0.500000
vt 0.306641 0.500000
vt 0.306641 0.500000
vt 0.306641 0.500000
vt 0.306641 0.500000
vt 0.306641 0.500000
vt 0.306641 0.500000
vt 0.306641 0.500000
vt 0.306641 0.500000
vt 0.306641 0.500000
vt 0.306641 0.500000
vt 0.306641 0.500000
vt 0.306641 0.500000
vt 0.306641 0.500000
vt 0.306641 0.500000
vt 0.306641 0.500000
vt 0.306641 0.500000
vt 0.306641 0.500000
vt 0.310547 0.500000
vt 0.310547 0.500000
vt 0.310547 0.500000
vt 0.306641 0.500000
vt 0.306641 0.500000
vt 0.306641 0.500000
vt 0.310547 0.500000
vt 0.310547 0.500000
vt 0.310547 0.500000
vt 0.310547 0.500000
vt 0.306641 0.500000
vt 0.306641 0.500000
vt 0.306641 0.500000
vt 0.306641 0.500000
vt 0.310547 0.500000
vt 0.310547 0.500000
vt 0.310547 0.500000
vt 0.310547 0.500000
vt 0.306641 0.500000
vt 0.306641 0.500000
vt 0.306641 0.500000
vt 0.306641 0.500000
vt 0.310547 0.500000
vt 0.306641 0.500000
vt 0.306641 0.500000
vt 0.306641 0.500000
vt 0.306641 0.500000
vt 0.306641 0.500000
vt 0.306641 0.500000
vt 0.306641 0.500000
vt 0.306641 0.500000
vt 0.306641 0.500000
vt 0.306641 0.500000
vt 0.306641 0.500000
vt 0.306641 0.500000
vt 0.306641 0.500000
vt 0.306641 0.500000
vt 0.306641 0.500000
vt 0.306641 0.500000
vt 0.306641 0.500000
vt 0.306641 0.500000
vt 0.302734 0.500000
vt 0.302734 0.500000
vt 0.302734 0.500000
vt 0.302734 0.500000
vt 0.302734 0.500000
vt 0.302734 0.500000
vt 0.302734 0.500000
vt 0.302734 0.500000
vt 0.302734 0.500000
vt 0.302734 0.500000
vt 0.302734 0.500000
vt 0.302734 0.500000
vt 0.306641 0.500000
vt 0.306641 0.500000
vt 0.306641 0.500000
vt 0.306641 0.500000
vn -1.0000 0.0000 0.0000
vn 1.0000 0.0000 0.0000
vn 0.0000 -0.0000 1.0000
vn 0.0000 0.0000 -1.0000
vn 0.0000 -1.0000 -0.0000
vn 0.0000 1.0000 0.0000
usemtl palette.003
s 1
f 1/1/1 2/2/1 3/3/1
f 4/4/1 2/2/1 1/1/1
f 5/5/1 6/6/1 7/7/1
f 8/8/1 6/6/1 5/5/1
f 9/9/1 5/5/1 7/7/1
f 10/10/1 11/11/1 12/12/1
f 13/13/1 14/14/1 15/15/1
f 16/16/1 6/6/1 8/8/1
f 17/17/1 10/10/1 9/9/1
f 17/17/1 11/11/1 10/10/1
f 18/18/1 16/16/1 13/13/1
f 18/18/1 13/13/1 15/15/1
f 19/19/1 17/17/1 9/9/1
f 19/19/1 18/18/1 17/17/1
f 19/19/1 9/9/1 7/7/1
f 20/20/1 16/16/1 18/18/1
f 20/20/1 18/18/1 19/19/1
f 20/20/1 6/6/1 16/16/1
f 21/21/1 22/22/1 23/23/1
f 24/24/1 22/22/1 21/21/1
f 25/25/1 26/26/1 27/27/1
f 28/28/1 26/26/1 25/25/1
f 29/29/1 30/30/1 31/31/1
f 32/32/1 30/30/1 29/29/1
f 33/33/1 34/34/1 35/35/1
f 36/36/1 34/34/1 33/33/1
f 37/37/1 38/38/1 39/39/1
f 40/40/1 38/38/1 37/37/1
f 41/41/1 42/42/1 43/43/1
f 44/44/1 42/42/1 41/41/1
f 45/45/1 46/46/1 47/47/1
f 48/48/1 46/46/1 45/45/1
f 49/49/1 50/50/1 51/51/1
f 52/52/1 50/50/1 49/49/1
f 53/53/2 54/54/2 55/55/2
f 55/55/2 54/54/2 56/56/2
f 57/57/2 58/58/2 59/59/2
f 59/59/2 58/58/2 60/60/2
f 61/61/2 62/62/2 63/63/2
f 63/63/2 62/62/2 64/64/2
f 65/65/2 66/66/2 67/67/2
f 67/67/2 66/66/2 68/68/2
f 69/69/2 70/70/2 71/71/2
f 71/71/2 70/70/2 72/72/2
f 73/73/2 74/74/2 75/75/2
f 75/75/2 74/74/2 76/76/2
f 77/77/2 78/78/2 79/79/2
f 79/79/2 78/78/2 80/80/2
f 81/81/2 82/82/2 83/83/2
f 83/83/2 82/82/2 84/84/2
f 85/85/2 86/86/2 87/87/2
f 87/87/2 86/86/2 88/88/2
f 89/89/2 90/90/2 91/91/2
f 91/91/2 90/90/2 92/92/2
f 89/89/2 91/91/2 93/93/2
f 92/92/2 90/90/2 94/94/2
f 89/89/2 93/93/2 95/95/2
f 93/93/2 94/94/2 95/95/2
f 94/94/2 90/90/2 96/96/2
f 95/95/2 94/94/2 96/96/2
f 97/97/3 98/98/3 99/99/3
f 100/100/3 98/98/3 97/97/3
f 101/101/3 97/97/3 99/99/3
f 102/102/3 98/98/3 100/100/3
f 103/103/3 101/101/3 99/99/3
f 103/103/3 102/102/3 101/101/3
f 104/104/3 98/98/3 102/102/3
f 104/104/3 102/102/3 103/103/3
f 105/105/3 103/103/3 99/99/3
f 106/106/3 98/98/3 104/104/3
f 107/107/3 105/105/3 99/99/3
f 107/107/3 106/106/3 105/105/3
f 108/108/3 98/98/3 106/106/3
f 108/108/3 106/106/3 107/107/3
f 109/109/3 107/107/3 99/99/3
f 110/110/3 98/98/3 108/108/3
f 111/111/3 109/109/3 99/99/3
f 111/111/3 110/110/3 109/109/3
f 112/112/3 98/98/3 110/110/3
f 112/112/3 110/110/3 111/111/3
f 113/113/3 114/114/3 115/115/3
f 116/116/3 114/114/3 113/113/3
f 117/117/3 118/118/3 119/119/3
f 120/120/3 118/118/3 117/117/3
f 121/121/3 122/122/3 123/123/3
f 124/124/3 122/122/3 121/121/3
f 125/125/3 126/126/3 127/127/3
f 128/128/3 126/126/3 125/125/3
f 129/129/3 130/130/3 131/131/3
f 132/132/3 130/130/3 129/129/3
f 133/133/3 134/134/3 135/135/3
f 136/136/3 134/134/3 133/133/3
f 137/137/3 138/138/3 139/139/3
f 140/140/3 138/138/3 137/137/3
f 141/141/3 142/142/3 143/143/3
f 144/144/3 142/142/3 141/141/3
f 145/145/3 146/146/3 147/147/3
f 148/148/3 146/146/3 145/145/3
f 149/149/3 150/150/3 151/151/3
f 152/152/3 150/150/3 149/149/3
f 153/153/3 154/154/3 155/155/3
f 156/156/3 154/154/3 153/153/3
f 157/157/4 158/158/4 159/159/4
f 159/159/4 158/158/4 160/160/4
f 160/160/4 158/158/4 161/161/4
f 161/161/4 158/158/4 162/162/4
f 162/162/4 158/158/4 163/163/4
f 163/163/4 158/158/4 164/164/4
f 164/164/4 158/158/4 165/165/4
f 165/165/4 158/158/4 166/166/4
f 167/167/4 168/168/4 169/169/4
f 169/169/4 168/168/4 170/170/4
f 171/171/4 172/172/4 173/173/4
f 173/173/4 172/172/4 174/174/4
f 175/175/4 176/176/4 177/177/4
f 177/177/4 176/176/4 178/178/4
f 179/179/4 180/180/4 181/181/4
f 181/181/4 180/180/4 182/182/4
f 183/183/4 184/184/4 185/185/4
f 185/185/4 184/184/4 186/186/4
f 187/187/4 188/188/4 189/189/4
f 189/189/4 188/188/4 190/190/4
f 191/191/4 192/192/4 193/193/4
f 193/193/4 192/192/4 194/194/4
f 195/195/4 196/196/4 197/197/4
f 197/197/4 196/196/4 198/198/4
f 199/199/5 200/200/5 201/201/5
f 202/202/5 200/200/5 199/199/5
f 203/203/5 204/204/5 205/205/5
f 206/206/5 204/204/5 203/203/5
f 207/207/5 208/208/5 209/209/5
f 210/210/5 208/208/5 207/207/5
f 211/211/5 212/212/5 213/213/5
f 214/214/5 212/212/5 211/211/5
f 215/215/5 216/216/5 217/217/5
f 218/218/5 216/216/5 215/215/5
f 219/219/5 220/220/5 221/221/5
f 222/222/5 220/220/5 219/219/5
f 223/223/5 224/224/5 225/225/5
f 226/226/5 224/224/5 223/223/5
f 227/227/6 228/228/6 229/229/6
f 229/229/6 228/228/6 230/230/6
f 231/231/6 232/232/6 233/233/6
f 233/233/6 232/232/6 234/234/6
f 235/235/6 236/236/6 237/237/6
f 237/237/6 236/236/6 238/238/6
f 239/239/6 240/240/6 241/241/6
f 242/242/6 243/243/6 244/244/6
f 244/244/6 243/243/6 245/245/6
f 241/241/6 246/246/6 247/247/6
f 239/239/6 241/241/6 247/247/6
f 247/247/6 246/246/6 248/248/6
f 239/239/6 247/247/6 249/249/6
f 249/249/6 247/247/6 250/250/6
f 251/251/6 252/252/6 253/253/6
f 253/253/6 252/252/6 254/254/6
f 251/251/6 253/253/6 255/255/6
f 251/251/6 255/255/6 256/256/6
f 255/255/6 257/257/6 256/256/6
f 256/256/6 257/257/6 258/258/6
f 259/259/6 260/260/6 261/261/6
f 260/262/6 262/263/6 261/264/6
f 262/265/6 263/266/6 264/267/6
f 261/264/6 262/263/6 264/268/6
f 263/269/6 265/270/6 266/271/6
f 264/267/6 263/266/6 266/272/6
f 265/273/6 267/274/6 268/275/6
f 266/271/6 265/270/6 268/276/6
f 267/277/6 269/278/6 270/279/6
f 268/275/6 267/274/6 270/280/6
f 269/281/6 271/282/6 272/283/6
f 270/279/6 269/278/6 272/284/6
f 268/275/6 270/280/6 273/285/6
f 266/272/6 268/275/6 273/285/6
f 270/280/6 272/283/6 273/285/6
f 264/267/6 266/272/6 273/285/6
f 261/261/6 264/267/6 273/285/6
f 273/285/6 272/283/6 274/286/6
f 261/261/6 273/285/6 275/287/6
f 274/286/6 272/283/6 276/288/6
f 259/259/6 261/261/6 277/289/6
f 275/287/6 276/288/6 277/289/6
f 261/261/6 275/287/6 277/289/6
f 276/288/6 272/283/6 278/290/6
f 277/289/6 276/288/6 278/290/6
f 278/290/6 272/283/6 279/291/6
f 272/283/6 271/282/6 280/292/6
f 279/291/6 272/283/6 280/292/6
f 259/259/6 277/289/6 281/293/6
f 278/290/6 279/291/6 282/294/6
f 282/294/6 279/291/6 283/295/6
f 280/292/6 271/282/6 284/296/6
f 259/259/6 281/293/6 285/297/6
f 283/295/6 284/296/6 285/297/6
f 282/294/6 283/295/6 285/297/6
f 281/293/6 282/294/6 285/297/6
f 284/296/6 271/282/6 286/298/6
f 285/297/6 284/296/6 286/298/6
f 287/299/6 288/300/6 289/301/6
f 289/301/6 288/300/6 290/302/6
f 291/303/6 292/304/6 293/305/6
f 293/305/6 292/304/6 294/306/6
f 295/307/6 296/308/6 297/309/6
f 297/309/6 296/308/6 298/310/6
f 299/311/6 300/312/6 301/313/6
f 301/313/6 300/312/6 302/314/6
f 287/299/6 289/301/6 303/315/6
f 290/302/6 288/300/6 304/316/6
f 287/299/6 303/315/6 305/317/6
f 303/315/6 304/316/6 305/317/6
f 304/316/6 288/300/6 306/318/6
f 305/317/6 304/316/6 306/318/6
